<?xml version="1.0" encoding="UTF-8" standalone="no"?>
<!DOCTYPE svg PUBLIC "-//W3C//DTD SVG 1.1//EN" "http://www.w3.org/Graphics/SVG/1.1/DTD/svg11.dtd">
<svg width="100%" height="100%" viewBox="0 0 481 453" version="1.1" xmlns="http://www.w3.org/2000/svg" xmlns:xlink="http://www.w3.org/1999/xlink" xml:space="preserve" xmlns:serif="http://www.serif.com/" style="fill-rule:evenodd;clip-rule:evenodd;stroke-linejoin:round;stroke-miterlimit:2;">
    <ellipse cx="243.387" cy="226.453" rx="237" ry="226.453" style="fill:url(#_Radial1);"/>
    <path d="M232.387,48.965C115.782,49.919 51.387,136.861 51.387,108.404C51.387,79.947 136.505,7.898 243.387,5.344C369.442,2.331 447.329,107.6 442.674,146.636C439.305,174.893 377.008,47.781 232.387,48.965Z" style="fill:url(#_Linear2);"/>
    <path d="M247.031,411.237C320.129,410.719 365.751,343.65 411.387,349.797C454.584,355.616 335.027,461.203 218.032,445.858C101.087,430.519 30.883,342.239 33.1,311.565C35.151,283.187 105.93,412.237 247.031,411.237Z" style="fill:url(#_Linear3);"/>
    <g>
        <g>
            <g>
                <path d="M258.621,128.363C255.931,127.526 252.437,127.051 249.791,127.179C245.925,127.371 240.94,128.936 237.73,130.969C231.696,134.808 227.726,140.68 226.427,147.644C226.048,149.688 225.868,152.348 226.103,152.585C226.192,152.681 227.055,152.781 228.016,152.83C228.977,152.879 230.808,153.012 232.12,153.123C233.409,153.242 234.533,153.307 234.601,153.28C234.67,153.254 234.598,153.203 234.428,153.203C234.226,153.189 234.131,152.977 234.124,152.483C234.093,151.618 234.315,149.373 234.468,148.817C234.563,148.519 234.51,148.382 234.259,148.309C233.977,148.221 234.007,148.196 234.422,148.154C234.706,148.11 234.827,148.051 234.74,147.993C234.377,147.831 236.491,143.328 237.55,141.965C240.788,137.827 245.002,135.617 250.225,135.349C252.245,135.226 253.545,135.406 255.809,136.053C257.72,136.6 257.989,136.719 259.525,137.686C261.532,138.955 261.516,138.948 262.712,140.085C266.862,144.102 268.618,150.061 267.361,155.91C267.015,157.496 265.462,161.077 265.171,160.967C265.06,160.918 265.169,161.098 265.42,161.342L265.881,161.793L265.4,161.598C264.951,161.417 264.883,161.444 264.627,161.935C264.455,162.237 264.187,162.628 264.017,162.798C263.84,162.984 263.747,163.15 263.803,163.194C263.866,163.222 263.743,163.243 263.557,163.236C263.317,163.224 263.638,163.48 264.522,164.043C265.246,164.497 266.848,165.53 268.075,166.34C269.303,167.15 270.338,167.799 270.383,167.782C270.445,167.771 270.883,167.21 271.371,166.538C272.637,164.795 274.853,159.807 275.318,157.613C277.232,148.71 274.345,139.64 267.708,133.648C265.193,131.396 261.634,129.323 258.621,128.363Z" style="fill:#fff;fill-rule:nonzero;"/>
                <path d="M260.017,166.313C259.522,166.66 258.882,167.037 258.601,167.158C258.321,167.279 257.867,167.493 257.595,167.637C257.323,167.781 256.941,167.876 256.746,167.846C256.083,167.721 257.549,168.335 261.955,169.99C264.401,170.907 266.476,171.64 266.56,171.621C266.88,171.498 268.633,169.763 268.588,169.611C268.484,169.376 264.822,167.408 262.786,166.504L260.939,165.683L260.017,166.313Z" style="fill:#fff;fill-rule:nonzero;"/>
                <path d="M232.885,158.207C229.7,157.888 226.769,157.72 226.713,157.846C226.685,157.909 226.875,158.674 227.14,159.567C227.569,161.024 228.287,162.685 229.08,164.133L229.374,164.661L231.337,164.626C232.426,164.6 234.709,164.65 236.437,164.719C238.157,164.803 239.745,164.846 239.953,164.845C240.3,164.829 240.3,164.829 239.925,164.738C239.699,164.694 239.429,164.536 239.315,164.41C239.208,164.268 238.743,163.74 238.294,163.219C236.915,161.642 235.209,158.805 235.551,158.673C235.863,158.566 235.13,158.43 232.885,158.207Z" style="fill:#fff;fill-rule:nonzero;"/>
                <path d="M262.153,173.159C256.394,171.488 249.549,170.431 243.458,170.314C240.741,170.26 234.498,170.529 234.413,170.718C234.343,170.876 236.411,172.476 237.9,173.421C239.5,174.415 243.872,176.188 245.621,176.549C249.882,177.422 254.612,177.199 258.428,175.927C260.044,175.397 262.82,174.212 263.283,173.85C263.567,173.636 263.376,173.513 262.153,173.159Z" style="fill:#fff;fill-rule:nonzero;"/>
                <path d="M151.877,126.426C151.708,127.485 151.786,129.693 152.016,131.005C152.665,134.563 154.473,137.767 156.908,139.605C158.006,140.452 160.843,141.638 165.375,143.179C168.776,144.331 178.313,147.624 193.312,152.833C205.389,157.046 205.648,157.143 206.525,158.232C207.132,158.993 207.555,160.126 207.625,161.159C207.692,162.115 207.652,162.248 206.491,164.945C205.693,166.783 205.213,168.12 205.062,168.884C204.255,173.081 205.398,177.275 208.272,180.631C209.954,182.588 212.006,184.01 215.29,185.469C219.046,187.139 221.568,188.864 223.326,190.949C224.127,191.91 224.522,192.596 225.083,194.055C225.485,195.065 225.86,196.177 225.931,196.53L226.052,197.15L229.278,189.889C231.037,185.889 232.617,182.206 232.748,181.697C232.895,181.196 232.945,180.915 232.845,181.097C232.767,181.271 232.283,181.85 231.775,182.399C228.96,185.458 224.779,186.189 221.282,184.276C217.983,182.47 216.227,179.063 216.72,175.444C216.918,174.02 217.996,171.891 219.468,170.069C220.764,168.471 221.653,166.598 221.856,165.12C222.294,161.836 221.071,158.25 218.747,155.951L217.97,155.19L184.97,140.469L151.978,125.772L151.877,126.426Z" style="fill:#fff;fill-rule:nonzero;"/>
                <path d="M270.381,178.762C268.511,178.461 267.296,178.601 265.221,179.399C261.382,180.85 259.588,183.228 258.649,188.065C258.386,189.422 258.014,190.769 257.719,191.432C256.225,194.794 252.301,196.736 248.351,196.096C245.484,195.616 242.912,193.491 241.867,190.739C241.435,189.583 241.248,187.837 241.303,185.499C241.303,185.159 240.302,187.284 237.798,192.919C234.481,200.385 234.314,200.803 234.728,200.552C237.339,198.972 240.257,198.359 243.107,198.794C245.358,199.132 246.189,199.388 249.937,200.865C251.929,201.656 254.137,202.429 254.841,202.59C259.897,203.76 265.104,202.123 268.586,198.284C269.47,197.315 269.721,196.879 271.106,194.016C272.802,190.498 272.912,190.377 274.519,189.654C274.989,189.447 275.699,189.253 276.069,189.228C277.049,189.191 278.675,189.573 279.4,190.028C279.726,190.229 282.876,191.988 286.389,193.908C289.895,195.844 298.753,200.707 306.074,204.735C313.395,208.763 320.149,212.406 321.112,212.834C323.227,213.774 324.935,214.098 327.055,213.963C330.317,213.768 333.188,212.454 335.652,210.015C336.038,209.657 336.324,209.311 336.306,209.266C336.271,209.175 316.207,199.711 298.691,191.531C293.824,189.255 286.642,185.893 282.731,184.061C272.933,179.442 271.931,179.016 270.381,178.762Z" style="fill:#fff;fill-rule:nonzero;"/>
                <path d="M199.749,156.638C197.856,156.005 191.029,153.633 184.594,151.397C168.999,145.999 159.816,142.844 159.724,142.879C159.542,142.949 160.526,146.222 161.096,147.364C162.171,149.58 164.189,151.592 166.202,152.505C166.628,152.695 168.84,153.375 171.104,154.022C173.384,154.676 178.493,156.152 182.449,157.287C186.422,158.428 192.408,160.143 195.777,161.111C199.146,162.078 201.94,162.81 201.999,162.76C202.14,162.615 204.874,160.673 205.489,160.266L205.963,159.966L205.408,159.342C204.57,158.421 203.558,157.934 199.749,156.638Z" style="fill:#fff;fill-rule:nonzero;"/>
                <path d="M277.5,190.942C276.758,190.782 275.44,190.687 275.398,190.782C275.369,190.845 275.749,194.246 275.949,195.752C275.95,195.791 277.424,196.729 279.206,197.823C282.904,200.091 287.703,203.073 295.176,207.736C308.157,215.829 307.729,215.601 309.505,215.899C312.038,216.325 315.084,215.807 317.585,214.518C318.846,213.85 319.091,213.638 318.76,213.49C318.649,213.441 317.546,212.819 316.292,212.11C313.086,210.308 305.162,205.936 292.457,198.967C286.438,195.669 280.806,192.562 279.926,192.076C278.276,191.154 278.077,191.047 277.5,190.942Z" style="fill:#fff;fill-rule:nonzero;"/>
                <path d="M233.6,173.57C232.211,173.123 231.732,173.137 231.143,173.612C230.12,174.425 229.956,176.071 230.785,176.969C231.459,177.665 245.365,183.845 246.182,183.792C248.048,183.676 248.992,181.808 247.948,180.286C247.541,179.67 247.494,179.649 241.155,176.814C237.643,175.234 234.244,173.781 233.6,173.57Z" style="fill:#fff;fill-rule:nonzero;"/>
                <path d="M205.296,162.317C202.198,164.058 199.758,167.548 198.906,171.423C197.968,175.788 199.095,180.825 201.768,184.167C203.751,186.636 203.672,186.601 211.879,190.38C219.927,194.089 219.911,194.082 221.178,195.911C222.153,197.289 222.739,198.608 223.184,200.413C223.418,201.291 223.628,202.009 223.658,201.984C223.811,201.938 224.209,199.639 224.272,198.476C224.414,195.988 223.742,193.799 222.277,192.033C220.665,190.088 219.622,189.417 212.897,185.918C210.023,184.433 208.599,183.385 207.227,181.792C204.705,178.876 203.435,175.609 203.329,171.933C203.271,169.298 203.468,168.346 204.895,164.879L206.133,161.838L205.296,162.317Z" style="fill:#fff;fill-rule:nonzero;"/>
                <path d="M272.662,194.386C271.932,196.028 271.292,197.256 270.761,197.984C267.861,202.044 263.29,204.417 258.229,204.493C256.119,204.519 254.425,204.163 251.428,203.039C244.207,200.36 243.143,200.076 240.465,200.19C237.871,200.285 235.354,201.738 233.299,204.321C232.07,205.854 232.066,205.947 233.252,205.321C234.89,204.442 237.266,203.646 238.515,203.558C240.951,203.393 240.589,203.27 248.657,206.723C256.89,210.23 256.905,210.237 259.731,210.131C267.226,209.852 273.699,203.75 274.256,196.456C274.354,195.044 274.247,193.541 273.97,192.548L273.786,191.899L272.662,194.386Z" style="fill:#fff;fill-rule:nonzero;"/>
                <path d="M197.76,163.24C196.28,162.828 192.809,161.833 190.051,161.023C180.945,158.376 168.584,154.887 168.149,154.845L167.73,154.81L168.01,155.879C168.791,158.929 170.798,161.56 173.47,163.031C174.914,163.824 175.054,163.848 187.166,166.452C191.859,167.46 196.209,168.391 196.81,168.526C197.412,168.661 197.956,168.713 198.013,168.625C198.064,168.554 198.589,167.671 199.146,166.672C199.704,165.672 200.293,164.686 200.453,164.455C200.621,164.246 200.667,164.058 200.603,164.03C200.517,164.011 199.241,163.652 197.76,163.24Z" style="fill:#fff;fill-rule:nonzero;"/>
                <path d="M275.779,197.624C275.723,197.75 275.351,198.927 274.939,200.237L274.197,202.629L280.771,207.402C292.718,216.076 292.199,215.713 294.086,216.57C297.324,218.047 299.949,217.966 303.53,216.287C304.749,215.713 304.779,215.689 304.481,215.424C304.158,215.129 297.749,211.091 290.485,206.597C282.233,201.474 276.487,197.901 276.182,197.652C275.95,197.492 275.826,197.475 275.779,197.624Z" style="fill:#fff;fill-rule:nonzero;"/>
                <path d="M224.981,203.006C215.603,224.11 215.107,225.27 215.382,225.373C215.524,225.436 216.92,225.698 218.471,225.952L221.291,226.411L230.933,204.839L240.568,183.282L234.87,180.75L224.981,203.006Z" style="fill:#fff;fill-rule:nonzero;"/>
                <path d="M195.7,169.79C194.881,169.634 191.617,168.94 188.446,168.249C179.951,166.44 176.884,165.814 176.599,165.858C176.263,165.935 177.243,168.11 178.269,169.586C179.997,172.036 182.524,173.707 185.022,174.042C186.22,174.196 196.827,175.507 196.888,175.497C197.02,175.499 197.473,170.181 197.34,170.141C197.261,170.106 196.519,169.946 195.7,169.79Z" style="fill:#fff;fill-rule:nonzero;"/>
                <path d="M272.898,204.49C272.642,204.811 271.847,205.705 271.148,206.472C270.432,207.231 269.874,207.891 269.892,207.936C269.925,207.989 272.623,210.341 277.227,214.314C279.882,216.591 280.789,217.145 282.58,217.581C284.635,218.06 287.073,217.933 289.167,217.219C290.552,216.739 290.749,216.637 290.545,216.414C290.326,216.185 286.494,213.367 280.866,209.316C277.459,206.857 274.029,204.369 273.685,204.122C273.42,203.909 273.322,203.96 272.898,204.49Z" style="fill:#fff;fill-rule:nonzero;"/>
                <path d="M267.281,209.517C266.579,209.904 265.238,210.499 264.294,210.836C263.358,211.157 262.614,211.469 262.639,211.499C262.923,211.965 266.36,215.629 267.009,216.125C268.742,217.5 272.01,218.271 274.631,217.943C275.961,217.759 277.795,217.289 277.886,217.083C277.943,216.957 276.467,215.64 271.655,211.498L268.556,208.817L267.281,209.517Z" style="fill:#fff;fill-rule:nonzero;"/>
                <path d="M194.508,176.726C190.355,176.204 184.899,175.594 184.785,175.638C184.489,175.752 185.811,178.135 186.825,179.342C188.705,181.576 190.868,182.877 193.092,183.147C194.009,183.252 198.576,183.354 199.121,183.275C199.144,183.266 198.888,182.566 198.523,181.686C198.174,180.813 197.702,179.45 197.495,178.64C197.281,177.845 196.971,177.14 196.821,177.093C196.679,177.03 195.636,176.868 194.508,176.726Z" style="fill:#fff;fill-rule:nonzero;"/>
                <path d="M197.064,184.799C192.813,184.838 193.146,184.684 193.944,186.078C194.835,187.646 195.879,188.998 196.929,189.994C197.761,190.76 198.133,190.944 204.934,194.099C208.931,195.95 212.577,197.741 213.246,198.151C215.013,199.277 216.943,200.89 218.102,202.237C219.407,203.724 220.347,206.032 220.504,208.105L220.612,209.476L220.967,208.424C222.238,204.585 222.104,200.462 220.622,197.8C219.375,195.544 218.729,195.125 211.721,192.011C204.665,188.876 202.719,187.727 200.873,185.584C200.53,185.167 200.196,184.811 200.158,184.813C200.126,184.799 198.727,184.801 197.064,184.799Z" style="fill:#fff;fill-rule:nonzero;"/>
                <path d="M259.259,211.66C256.25,211.627 255.983,211.547 248.112,208.162C241.33,205.262 240.912,205.096 239.912,205.048C236.159,204.817 232.61,207.02 229.939,211.201C228.661,213.185 228.624,213.396 229.613,212.531C230.699,211.577 232.291,210.715 233.475,210.391C235.423,209.877 239.022,210.115 242.131,210.987C242.868,211.2 246.735,212.749 250.71,214.439C257.609,217.373 257.995,217.525 259.128,217.613C259.78,217.676 260.794,217.692 261.396,217.656C262.49,217.576 265.091,216.955 265.182,216.749C265.231,216.639 261.051,211.965 260.725,211.764C260.615,211.715 259.962,211.652 259.259,211.66Z" style="fill:#fff;fill-rule:nonzero;"/>
                <path d="M205.262,197.401C199.92,195.556 194.606,195.52 191.765,197.32C190.148,198.321 189.254,199.398 188.405,201.308C187.839,202.625 187.672,203.213 187.618,204.058C187.39,207.548 188.857,211.054 192.354,215.349C194.492,217.981 198.628,222.03 201.655,224.49L202.578,225.222L204.316,225.011C206.353,224.764 209.81,224.769 212.714,225.038C214.438,225.2 214.709,225.187 214.458,224.944C214.288,224.773 212.771,223.551 211.055,222.222C200.239,213.768 195.779,209.385 194.381,205.853C193.865,204.547 193.821,204.263 194.021,203.558C194.699,201.137 197.284,200.169 200.142,201.269C201.771,201.898 202.216,202.342 203.499,204.688C205.126,207.661 206.849,209.314 210.332,211.259C212.656,212.537 213.155,212.646 214.625,212.146C215.142,211.96 215.605,211.769 215.634,211.706C215.662,211.643 215.172,211.255 214.558,210.85C212.343,209.412 210.884,208.272 210.111,207.418C209.369,206.578 209.344,206.548 209.837,206.673C210.133,206.729 211.87,207.501 213.734,208.367L217.108,209.961L217.373,208.982C217.752,207.619 217.639,206.681 216.999,205.527C215.805,203.409 213.965,201.722 210.932,199.996C209.393,199.123 206.786,197.927 205.262,197.401ZM212.073,203.811C212.31,204.766 212.073,204.831 210.7,204.221C209.61,203.737 209.088,203.297 208.784,202.576C208.393,201.627 208.632,201.601 210.321,202.352L211.899,203.053L212.073,203.811Z" style="fill:#fff;fill-rule:nonzero;"/>
                <path d="M242.758,214.043C238.217,212.649 234.96,212.45 233.128,213.469C232.207,213.967 231.242,214.862 230.969,215.477L230.73,216.014L234.64,217.638C236.799,218.521 238.528,219.309 238.493,219.387C238.353,219.703 235.897,219.444 233.342,218.856C231.834,218.508 230.515,218.243 230.417,218.294C230.119,218.369 231.227,220.298 231.862,220.826C232.295,221.17 232.951,221.48 234.419,221.962C238.299,223.27 241.329,223.426 244.393,222.444C246.313,221.823 248.344,222.272 249.961,223.652C251.265,224.76 251.931,227.003 251.342,228.329C249.925,231.518 242.394,231.706 227.012,228.934C224.486,228.492 220.495,227.777 218.132,227.351C213.299,226.489 211.433,226.264 208.507,226.212C204.747,226.167 202.06,226.598 199.149,227.705C196.064,228.905 193.632,230.678 191.584,233.246C190.027,235.219 188.706,238.148 188.306,240.579C187.779,243.766 188.075,246.544 189.24,249.537C190.3,252.257 192.732,255.928 193.525,256.015C193.736,256.052 194.676,255.978 195.614,255.866C198.722,255.508 200.926,255.524 206.335,255.942L208.018,256.067L212.353,246.312C214.738,240.945 216.751,236.585 216.814,236.613C217.051,236.718 218.563,238.335 219.578,239.58C222.427,243.039 223.551,246.165 223.057,249.235C222.864,250.434 221.898,252.651 221.151,253.567C219.702,255.38 217.184,256.624 213.974,257.126C211.126,257.58 209.402,257.589 203.932,257.181C200.953,256.953 196.966,257.034 194.977,257.341C190.395,258.083 186.656,260.032 184.124,263.008C182.861,264.489 181.337,267.705 180.962,269.656C180.487,272.299 180.691,274.733 181.631,277.551C182.148,279.066 183.978,282.563 184.493,283.019C184.686,283.18 185.351,283.173 186.828,282.998C187.973,282.845 190.448,282.678 192.37,282.606L195.844,282.487L197.461,279.104C198.366,277.238 200.04,273.597 201.197,270.992C203.161,266.572 203.303,266.295 203.53,266.509C204.226,267.197 205.694,269.55 206.268,270.939C207.811,274.611 207.007,278.337 204.125,280.78C201.549,282.962 198.685,283.749 192.487,284.001C187.678,284.189 185.228,284.555 183.101,285.387C176.674,287.899 173.23,294.118 174.444,300.914C174.583,301.58 174.902,302.648 175.177,303.262C175.67,304.407 177.031,306.108 177.917,306.71C178.333,307.008 178.371,307.006 178.357,306.697C178.341,306.52 178.052,305.428 177.706,304.291C176.882,301.468 176.836,299.444 177.578,296.882C178.503,293.607 180.639,291.267 183.763,290.066C185.769,289.294 187.547,289.12 191.637,289.274C195.804,289.425 197.533,289.362 199.85,288.955C203.249,288.367 206.378,286.941 208.706,284.932C210.232,283.626 210.99,282.601 212.066,280.434C212.866,278.804 213.073,278.254 213.322,276.928C213.867,273.957 213.335,269.581 212.102,267.124L211.669,266.27L209.833,266.191C208.817,266.137 206.451,265.974 204.541,265.806C202.647,265.645 200.311,265.457 199.375,265.438L197.647,265.37L193.983,273.532L190.295,281.703L189.353,280.207C185.514,274.173 186.246,268.356 191.216,265.593C193.901,264.102 197.558,263.742 203.964,264.34C208.717,264.788 211.071,264.851 213.658,264.602C219.671,264.042 223.654,262.183 226.968,258.382C227.931,257.279 228.11,256.961 229.204,254.499C230.539,251.539 230.765,250.562 230.829,247.906C230.877,245.206 229.906,241.221 228.636,238.975C228.258,238.296 228.242,238.289 227.451,238.24C227.016,238.198 223.331,237.6 219.285,236.88C215.248,236.182 211.649,235.603 211.316,235.588C210.96,235.581 210.625,235.696 210.555,235.854C210.469,236.005 208.526,240.377 206.243,245.6L202.08,255.054L201.766,254.782C201.147,254.261 198.462,250.989 197.788,249.952C196.239,247.525 195.376,244.703 195.604,242.744C195.771,241.306 196.742,239.035 197.686,237.848C199.215,235.938 201.763,234.669 204.958,234.199C208.424,233.717 211.056,233.96 220.225,235.615C233.494,237.996 241.525,238.597 247.318,237.598C252.412,236.724 255.879,234.069 256.942,230.231C258.155,225.8 255.728,221.394 249.971,217.589C248.681,216.751 243.926,214.392 242.758,214.043ZM241.958,216.693C242.163,216.955 242.313,217.172 242.292,217.22C242.278,217.251 241.864,217.332 241.371,217.377C240.71,217.462 240.273,217.381 239.626,217.093C238.805,216.729 237.949,215.933 238.075,215.648C238.11,215.57 238.533,215.512 239.036,215.527C240.111,215.533 241.474,216.081 241.958,216.693Z" style="fill:#fff;fill-rule:nonzero;"/>
                <path d="M193.673,290.689C191.925,290.669 189.634,290.634 188.614,290.634L186.749,290.618L183.739,297.691C177.332,312.706 172.773,324.327 171.824,327.95C171.41,329.562 171.251,330.814 171.472,330.913C171.819,331.067 173.182,329.404 174.335,327.403C176.971,322.79 186.166,303.968 190.185,294.923C191.076,292.919 191.853,291.298 191.932,291.333C192.169,291.438 193.186,293.233 193.63,294.318C194.249,295.86 194.5,297.634 194.334,299.243C194.22,300.307 194.06,300.879 193.448,302.214C192.086,305.237 190.293,306.974 186.835,308.631C185.087,309.461 184.824,309.628 185.087,309.801C185.572,310.112 187.107,310.189 188.435,309.966C191.611,309.411 195.223,306.556 197.063,303.139C198.651,300.16 198.946,296.264 197.834,292.387C197.604,291.585 197.293,290.88 197.144,290.833C196.995,290.786 195.438,290.717 193.673,290.689Z" style="fill:#fff;fill-rule:nonzero;"/>
            </g>
        </g>
        <g>
            <g>
                <path d="M258.621,128.363C255.931,127.526 252.437,127.051 249.791,127.179C245.925,127.371 240.94,128.936 237.73,130.969C231.696,134.808 227.726,140.68 226.427,147.644C226.048,149.688 225.868,152.348 226.103,152.585C226.192,152.681 227.055,152.781 228.016,152.83C228.977,152.879 230.808,153.012 232.12,153.123C233.409,153.242 234.533,153.307 234.601,153.28C234.67,153.254 234.598,153.203 234.428,153.203C234.226,153.189 234.131,152.977 234.124,152.483C234.093,151.618 234.315,149.373 234.468,148.817C234.563,148.519 234.51,148.382 234.259,148.309C233.977,148.221 234.007,148.196 234.422,148.154C234.706,148.11 234.827,148.051 234.74,147.993C234.377,147.831 236.491,143.328 237.55,141.965C240.788,137.827 245.002,135.617 250.225,135.349C252.245,135.226 253.545,135.406 255.809,136.053C257.72,136.6 257.989,136.719 259.525,137.686C261.532,138.955 261.516,138.948 262.712,140.085C266.862,144.102 268.618,150.061 267.361,155.91C267.015,157.496 265.462,161.077 265.171,160.967C265.06,160.918 265.169,161.098 265.42,161.342L265.881,161.793L265.4,161.598C264.951,161.417 264.883,161.444 264.627,161.935C264.455,162.237 264.187,162.628 264.017,162.798C263.84,162.984 263.747,163.15 263.803,163.194C263.866,163.222 263.743,163.243 263.557,163.236C263.317,163.224 263.638,163.48 264.522,164.043C265.246,164.497 266.848,165.53 268.075,166.34C269.303,167.15 270.338,167.799 270.383,167.782C270.445,167.771 270.883,167.21 271.371,166.538C272.637,164.795 274.853,159.807 275.318,157.613C277.232,148.71 274.345,139.64 267.708,133.648C265.193,131.396 261.634,129.323 258.621,128.363Z" style="fill:#fff;fill-rule:nonzero;"/>
                <path d="M260.017,166.313C259.522,166.66 258.882,167.037 258.601,167.158C258.321,167.279 257.867,167.493 257.595,167.637C257.323,167.781 256.941,167.876 256.746,167.846C256.083,167.721 257.549,168.335 261.955,169.99C264.401,170.907 266.476,171.64 266.56,171.621C266.88,171.498 268.633,169.763 268.588,169.611C268.484,169.376 264.822,167.408 262.786,166.504L260.939,165.683L260.017,166.313Z" style="fill:#fff;fill-rule:nonzero;"/>
                <path d="M232.885,158.207C229.7,157.888 226.769,157.72 226.713,157.846C226.685,157.909 226.875,158.674 227.14,159.567C227.569,161.024 228.287,162.685 229.08,164.133L229.374,164.661L231.337,164.626C232.426,164.6 234.709,164.65 236.437,164.719C238.157,164.803 239.745,164.846 239.953,164.845C240.3,164.829 240.3,164.829 239.925,164.738C239.699,164.694 239.429,164.536 239.315,164.41C239.208,164.268 238.743,163.74 238.294,163.219C236.915,161.642 235.209,158.805 235.551,158.673C235.863,158.566 235.13,158.43 232.885,158.207Z" style="fill:#fff;fill-rule:nonzero;"/>
                <path d="M262.153,173.159C256.394,171.488 249.549,170.431 243.458,170.314C240.741,170.26 234.498,170.529 234.413,170.718C234.343,170.876 236.411,172.476 237.9,173.421C239.5,174.415 243.872,176.188 245.621,176.549C249.882,177.422 254.612,177.199 258.428,175.927C260.044,175.397 262.82,174.212 263.283,173.85C263.567,173.636 263.376,173.513 262.153,173.159Z" style="fill:#fff;fill-rule:nonzero;"/>
                <path d="M151.877,126.426C151.708,127.485 151.786,129.693 152.016,131.005C152.665,134.563 154.473,137.767 156.908,139.605C158.006,140.452 160.843,141.638 165.375,143.179C168.776,144.331 178.313,147.624 193.312,152.833C205.389,157.046 205.648,157.143 206.525,158.232C207.132,158.993 207.555,160.126 207.625,161.159C207.692,162.115 207.652,162.248 206.491,164.945C205.693,166.783 205.213,168.12 205.062,168.884C204.255,173.081 205.398,177.275 208.272,180.631C209.954,182.588 212.006,184.01 215.29,185.469C219.046,187.139 221.568,188.864 223.326,190.949C224.127,191.91 224.522,192.596 225.083,194.055C225.485,195.065 225.86,196.177 225.931,196.53L226.052,197.15L229.278,189.889C231.037,185.889 232.617,182.206 232.748,181.697C232.895,181.196 232.945,180.915 232.845,181.097C232.767,181.271 232.283,181.85 231.775,182.399C228.96,185.458 224.779,186.189 221.282,184.276C217.983,182.47 216.227,179.063 216.72,175.444C216.918,174.02 217.996,171.891 219.468,170.069C220.764,168.471 221.653,166.598 221.856,165.12C222.294,161.836 221.071,158.25 218.747,155.951L217.97,155.19L184.97,140.469L151.978,125.772L151.877,126.426Z" style="fill:#fff;fill-rule:nonzero;"/>
                <path d="M270.381,178.762C268.511,178.461 267.296,178.601 265.221,179.399C261.382,180.85 259.588,183.228 258.649,188.065C258.386,189.422 258.014,190.769 257.719,191.432C256.225,194.794 252.301,196.736 248.351,196.096C245.484,195.616 242.912,193.491 241.867,190.739C241.435,189.583 241.248,187.837 241.303,185.499C241.303,185.159 240.302,187.284 237.798,192.919C234.481,200.385 234.314,200.803 234.728,200.552C237.339,198.972 240.257,198.359 243.107,198.794C245.358,199.132 246.189,199.388 249.937,200.865C251.929,201.656 254.137,202.429 254.841,202.59C259.897,203.76 265.104,202.123 268.586,198.284C269.47,197.315 269.721,196.879 271.106,194.016C272.802,190.498 272.912,190.377 274.519,189.654C274.989,189.447 275.699,189.253 276.069,189.228C277.049,189.191 278.675,189.573 279.4,190.028C279.726,190.229 282.876,191.988 286.389,193.908C289.895,195.844 298.753,200.707 306.074,204.735C313.395,208.763 320.149,212.406 321.112,212.834C323.227,213.774 324.935,214.098 327.055,213.963C330.317,213.768 333.188,212.454 335.652,210.015C336.038,209.657 336.324,209.311 336.306,209.266C336.271,209.175 316.207,199.711 298.691,191.531C293.824,189.255 286.642,185.893 282.731,184.061C272.933,179.442 271.931,179.016 270.381,178.762Z" style="fill:#fff;fill-rule:nonzero;"/>
                <path d="M199.749,156.638C197.856,156.005 191.029,153.633 184.594,151.397C168.999,145.999 159.816,142.844 159.724,142.879C159.542,142.949 160.526,146.222 161.096,147.364C162.171,149.58 164.189,151.592 166.202,152.505C166.628,152.695 168.84,153.375 171.104,154.022C173.384,154.676 178.493,156.152 182.449,157.287C186.422,158.428 192.408,160.143 195.777,161.111C199.146,162.078 201.94,162.81 201.999,162.76C202.14,162.615 204.874,160.673 205.489,160.266L205.963,159.966L205.408,159.342C204.57,158.421 203.558,157.934 199.749,156.638Z" style="fill:#fff;fill-rule:nonzero;"/>
                <path d="M277.5,190.942C276.758,190.782 275.44,190.687 275.398,190.782C275.369,190.845 275.749,194.246 275.949,195.752C275.95,195.791 277.424,196.729 279.206,197.823C282.904,200.091 287.703,203.073 295.176,207.736C308.157,215.829 307.729,215.601 309.505,215.899C312.038,216.325 315.084,215.807 317.585,214.518C318.846,213.85 319.091,213.638 318.76,213.49C318.649,213.441 317.546,212.819 316.292,212.11C313.086,210.308 305.162,205.936 292.457,198.967C286.438,195.669 280.806,192.562 279.926,192.076C278.276,191.154 278.077,191.047 277.5,190.942Z" style="fill:#fff;fill-rule:nonzero;"/>
                <path d="M233.6,173.57C232.211,173.123 231.732,173.137 231.143,173.612C230.12,174.425 229.956,176.071 230.785,176.969C231.459,177.665 245.365,183.845 246.182,183.792C248.048,183.676 248.992,181.808 247.948,180.286C247.541,179.67 247.494,179.649 241.155,176.814C237.643,175.234 234.244,173.781 233.6,173.57Z" style="fill:#fff;fill-rule:nonzero;"/>
                <path d="M205.296,162.317C202.198,164.058 199.758,167.548 198.906,171.423C197.968,175.788 199.095,180.825 201.768,184.167C203.751,186.636 203.672,186.601 211.879,190.38C219.927,194.089 219.911,194.082 221.178,195.911C222.153,197.289 222.739,198.608 223.184,200.413C223.418,201.291 223.628,202.009 223.658,201.984C223.811,201.938 224.209,199.639 224.272,198.476C224.414,195.988 223.742,193.799 222.277,192.033C220.665,190.088 219.622,189.417 212.897,185.918C210.023,184.433 208.599,183.385 207.227,181.792C204.705,178.876 203.435,175.609 203.329,171.933C203.271,169.298 203.468,168.346 204.895,164.879L206.133,161.838L205.296,162.317Z" style="fill:#fff;fill-rule:nonzero;"/>
                <path d="M272.662,194.386C271.932,196.028 271.292,197.256 270.761,197.984C267.861,202.044 263.29,204.417 258.229,204.493C256.119,204.519 254.425,204.163 251.428,203.039C244.207,200.36 243.143,200.076 240.465,200.19C237.871,200.285 235.354,201.738 233.299,204.321C232.07,205.854 232.066,205.947 233.252,205.321C234.89,204.442 237.266,203.646 238.515,203.558C240.951,203.393 240.589,203.27 248.657,206.723C256.89,210.23 256.905,210.237 259.731,210.131C267.226,209.852 273.699,203.75 274.256,196.456C274.354,195.044 274.247,193.541 273.97,192.548L273.786,191.899L272.662,194.386Z" style="fill:#fff;fill-rule:nonzero;"/>
                <path d="M197.76,163.24C196.28,162.828 192.809,161.833 190.051,161.023C180.945,158.376 168.584,154.887 168.149,154.845L167.73,154.81L168.01,155.879C168.791,158.929 170.798,161.56 173.47,163.031C174.914,163.824 175.054,163.848 187.166,166.452C191.859,167.46 196.209,168.391 196.81,168.526C197.412,168.661 197.956,168.713 198.013,168.625C198.064,168.554 198.589,167.671 199.146,166.672C199.704,165.672 200.293,164.686 200.453,164.455C200.621,164.246 200.667,164.058 200.603,164.03C200.517,164.011 199.241,163.652 197.76,163.24Z" style="fill:#fff;fill-rule:nonzero;"/>
                <path d="M275.779,197.624C275.723,197.75 275.351,198.927 274.939,200.237L274.197,202.629L280.771,207.402C292.718,216.076 292.199,215.713 294.086,216.57C297.324,218.047 299.949,217.966 303.53,216.287C304.749,215.713 304.779,215.689 304.481,215.424C304.158,215.129 297.749,211.091 290.485,206.597C282.233,201.474 276.487,197.901 276.182,197.652C275.95,197.492 275.826,197.475 275.779,197.624Z" style="fill:#fff;fill-rule:nonzero;"/>
                <path d="M224.981,203.006C215.603,224.11 215.107,225.27 215.382,225.373C215.524,225.436 216.92,225.698 218.471,225.952L221.291,226.411L230.933,204.839L240.568,183.282L234.87,180.75L224.981,203.006Z" style="fill:#fff;fill-rule:nonzero;"/>
                <path d="M195.7,169.79C194.881,169.634 191.617,168.94 188.446,168.249C179.951,166.44 176.884,165.814 176.599,165.858C176.263,165.935 177.243,168.11 178.269,169.586C179.997,172.036 182.524,173.707 185.022,174.042C186.22,174.196 196.827,175.507 196.888,175.497C197.02,175.499 197.473,170.181 197.34,170.141C197.261,170.106 196.519,169.946 195.7,169.79Z" style="fill:#fff;fill-rule:nonzero;"/>
                <path d="M272.898,204.49C272.642,204.811 271.847,205.705 271.148,206.472C270.432,207.231 269.874,207.891 269.892,207.936C269.925,207.989 272.623,210.341 277.227,214.314C279.882,216.591 280.789,217.145 282.58,217.581C284.635,218.06 287.073,217.933 289.167,217.219C290.552,216.739 290.749,216.637 290.545,216.414C290.326,216.185 286.494,213.367 280.866,209.316C277.459,206.857 274.029,204.369 273.685,204.122C273.42,203.909 273.322,203.96 272.898,204.49Z" style="fill:#fff;fill-rule:nonzero;"/>
                <path d="M267.281,209.517C266.579,209.904 265.238,210.499 264.294,210.836C263.358,211.157 262.614,211.469 262.639,211.499C262.923,211.965 266.36,215.629 267.009,216.125C268.742,217.5 272.01,218.271 274.631,217.943C275.961,217.759 277.795,217.289 277.886,217.083C277.943,216.957 276.467,215.64 271.655,211.498L268.556,208.817L267.281,209.517Z" style="fill:#fff;fill-rule:nonzero;"/>
                <path d="M194.508,176.726C190.355,176.204 184.899,175.594 184.785,175.638C184.489,175.752 185.811,178.135 186.825,179.342C188.705,181.576 190.868,182.877 193.092,183.147C194.009,183.252 198.576,183.354 199.121,183.275C199.144,183.266 198.888,182.566 198.523,181.686C198.174,180.813 197.702,179.45 197.495,178.64C197.281,177.845 196.971,177.14 196.821,177.093C196.679,177.03 195.636,176.868 194.508,176.726Z" style="fill:#fff;fill-rule:nonzero;"/>
                <path d="M197.064,184.799C192.813,184.838 193.146,184.684 193.944,186.078C194.835,187.646 195.879,188.998 196.929,189.994C197.761,190.76 198.133,190.944 204.934,194.099C208.931,195.95 212.577,197.741 213.246,198.151C215.013,199.277 216.943,200.89 218.102,202.237C219.407,203.724 220.347,206.032 220.504,208.105L220.612,209.476L220.967,208.424C222.238,204.585 222.104,200.462 220.622,197.8C219.375,195.544 218.729,195.125 211.721,192.011C204.665,188.876 202.719,187.727 200.873,185.584C200.53,185.167 200.196,184.811 200.158,184.813C200.126,184.799 198.727,184.801 197.064,184.799Z" style="fill:#fff;fill-rule:nonzero;"/>
                <path d="M259.259,211.66C256.25,211.627 255.983,211.547 248.112,208.162C241.33,205.262 240.912,205.096 239.912,205.048C236.159,204.817 232.61,207.02 229.939,211.201C228.661,213.185 228.624,213.396 229.613,212.531C230.699,211.577 232.291,210.715 233.475,210.391C235.423,209.877 239.022,210.115 242.131,210.987C242.868,211.2 246.735,212.749 250.71,214.439C257.609,217.373 257.995,217.525 259.128,217.613C259.78,217.676 260.794,217.692 261.396,217.656C262.49,217.576 265.091,216.955 265.182,216.749C265.231,216.639 261.051,211.965 260.725,211.764C260.615,211.715 259.962,211.652 259.259,211.66Z" style="fill:#fff;fill-rule:nonzero;"/>
                <path d="M205.262,197.401C199.92,195.556 194.606,195.52 191.765,197.32C190.148,198.321 189.254,199.398 188.405,201.308C187.839,202.625 187.672,203.213 187.618,204.058C187.39,207.548 188.857,211.054 192.354,215.349C194.492,217.981 198.628,222.03 201.655,224.49L202.578,225.222L204.316,225.011C206.353,224.764 209.81,224.769 212.714,225.038C214.438,225.2 214.709,225.187 214.458,224.944C214.288,224.773 212.771,223.551 211.055,222.222C200.239,213.768 195.779,209.385 194.381,205.853C193.865,204.547 193.821,204.263 194.021,203.558C194.699,201.137 197.284,200.169 200.142,201.269C201.771,201.898 202.216,202.342 203.499,204.688C205.126,207.661 206.849,209.314 210.332,211.259C212.656,212.537 213.155,212.646 214.625,212.146C215.142,211.96 215.605,211.769 215.634,211.706C215.662,211.643 215.172,211.255 214.558,210.85C212.343,209.412 210.884,208.272 210.111,207.418C209.369,206.578 209.344,206.548 209.837,206.673C210.133,206.729 211.87,207.501 213.734,208.367L217.108,209.961L217.373,208.982C217.752,207.619 217.639,206.681 216.999,205.527C215.805,203.409 213.965,201.722 210.932,199.996C209.393,199.123 206.786,197.927 205.262,197.401ZM212.073,203.811C212.31,204.766 212.073,204.831 210.7,204.221C209.61,203.737 209.088,203.297 208.784,202.576C208.393,201.627 208.632,201.601 210.321,202.352L211.899,203.053L212.073,203.811Z" style="fill:#fff;fill-rule:nonzero;"/>
                <path d="M242.758,214.043C238.217,212.649 234.96,212.45 233.128,213.469C232.207,213.967 231.242,214.862 230.969,215.477L230.73,216.014L234.64,217.638C236.799,218.521 238.528,219.309 238.493,219.387C238.353,219.703 235.897,219.444 233.342,218.856C231.834,218.508 230.515,218.243 230.417,218.294C230.119,218.369 231.227,220.298 231.862,220.826C232.295,221.17 232.951,221.48 234.419,221.962C238.299,223.27 241.329,223.426 244.393,222.444C246.313,221.823 248.344,222.272 249.961,223.652C251.265,224.76 251.931,227.003 251.342,228.329C249.925,231.518 242.394,231.706 227.012,228.934C224.486,228.492 220.495,227.777 218.132,227.351C213.299,226.489 211.433,226.264 208.507,226.212C204.747,226.167 202.06,226.598 199.149,227.705C196.064,228.905 193.632,230.678 191.584,233.246C190.027,235.219 188.706,238.148 188.306,240.579C187.779,243.766 188.075,246.544 189.24,249.537C190.3,252.257 192.732,255.928 193.525,256.015C193.736,256.052 194.676,255.978 195.614,255.866C198.722,255.508 200.926,255.524 206.335,255.942L208.018,256.067L212.353,246.312C214.738,240.945 216.751,236.585 216.814,236.613C217.051,236.718 218.563,238.335 219.578,239.58C222.427,243.039 223.551,246.165 223.057,249.235C222.864,250.434 221.898,252.651 221.151,253.567C219.702,255.38 217.184,256.624 213.974,257.126C211.126,257.58 209.402,257.589 203.932,257.181C200.953,256.953 196.966,257.034 194.977,257.341C190.395,258.083 186.656,260.032 184.124,263.008C182.861,264.489 181.337,267.705 180.962,269.656C180.487,272.299 180.691,274.733 181.631,277.551C182.148,279.066 183.978,282.563 184.493,283.019C184.686,283.18 185.351,283.173 186.828,282.998C187.973,282.845 190.448,282.678 192.37,282.606L195.844,282.487L197.461,279.104C198.366,277.238 200.04,273.597 201.197,270.992C203.161,266.572 203.303,266.295 203.53,266.509C204.226,267.197 205.694,269.55 206.268,270.939C207.811,274.611 207.007,278.337 204.125,280.78C201.549,282.962 198.685,283.749 192.487,284.001C187.678,284.189 185.228,284.555 183.101,285.387C176.674,287.899 173.23,294.118 174.444,300.914C174.583,301.58 174.902,302.648 175.177,303.262C175.67,304.407 177.031,306.108 177.917,306.71C178.333,307.008 178.371,307.006 178.357,306.697C178.341,306.52 178.052,305.428 177.706,304.291C176.882,301.468 176.836,299.444 177.578,296.882C178.503,293.607 180.639,291.267 183.763,290.066C185.769,289.294 187.547,289.12 191.637,289.274C195.804,289.425 197.533,289.362 199.85,288.955C203.249,288.367 206.378,286.941 208.706,284.932C210.232,283.626 210.99,282.601 212.066,280.434C212.866,278.804 213.073,278.254 213.322,276.928C213.867,273.957 213.335,269.581 212.102,267.124L211.669,266.27L209.833,266.191C208.817,266.137 206.451,265.974 204.541,265.806C202.647,265.645 200.311,265.457 199.375,265.438L197.647,265.37L193.983,273.532L190.295,281.703L189.353,280.207C185.514,274.173 186.246,268.356 191.216,265.593C193.901,264.102 197.558,263.742 203.964,264.34C208.717,264.788 211.071,264.851 213.658,264.602C219.671,264.042 223.654,262.183 226.968,258.382C227.931,257.279 228.11,256.961 229.204,254.499C230.539,251.539 230.765,250.562 230.829,247.906C230.877,245.206 229.906,241.221 228.636,238.975C228.258,238.296 228.242,238.289 227.451,238.24C227.016,238.198 223.331,237.6 219.285,236.88C215.248,236.182 211.649,235.603 211.316,235.588C210.96,235.581 210.625,235.696 210.555,235.854C210.469,236.005 208.526,240.377 206.243,245.6L202.08,255.054L201.766,254.782C201.147,254.261 198.462,250.989 197.788,249.952C196.239,247.525 195.376,244.703 195.604,242.744C195.771,241.306 196.742,239.035 197.686,237.848C199.215,235.938 201.763,234.669 204.958,234.199C208.424,233.717 211.056,233.96 220.225,235.615C233.494,237.996 241.525,238.597 247.318,237.598C252.412,236.724 255.879,234.069 256.942,230.231C258.155,225.8 255.728,221.394 249.971,217.589C248.681,216.751 243.926,214.392 242.758,214.043ZM241.958,216.693C242.163,216.955 242.313,217.172 242.292,217.22C242.278,217.251 241.864,217.332 241.371,217.377C240.71,217.462 240.273,217.381 239.626,217.093C238.805,216.729 237.949,215.933 238.075,215.648C238.11,215.57 238.533,215.512 239.036,215.527C240.111,215.533 241.474,216.081 241.958,216.693Z" style="fill:#fff;fill-rule:nonzero;"/>
                <path d="M193.673,290.689C191.925,290.669 189.634,290.634 188.614,290.634L186.749,290.618L183.739,297.691C177.332,312.706 172.773,324.327 171.824,327.95C171.41,329.562 171.251,330.814 171.472,330.913C171.819,331.067 173.182,329.404 174.335,327.403C176.971,322.79 186.166,303.968 190.185,294.923C191.076,292.919 191.853,291.298 191.932,291.333C192.169,291.438 193.186,293.233 193.63,294.318C194.249,295.86 194.5,297.634 194.334,299.243C194.22,300.307 194.06,300.879 193.448,302.214C192.086,305.237 190.293,306.974 186.835,308.631C185.087,309.461 184.824,309.628 185.087,309.801C185.572,310.112 187.107,310.189 188.435,309.966C191.611,309.411 195.223,306.556 197.063,303.139C198.651,300.16 198.946,296.264 197.834,292.387C197.604,291.585 197.293,290.88 197.144,290.833C196.995,290.786 195.438,290.717 193.673,290.689Z" style="fill:#fff;fill-rule:nonzero;"/>
            </g>
        </g>
        <path d="M279.118,139.088C276.201,131.462 270.379,125.32 262.932,122.011C247.435,115.125 229.242,122.163 222.331,137.718C222.258,137.882 222.186,138.046 222.116,138.212L226.36,140.009C226.42,139.869 226.48,139.729 226.542,139.589C232.417,126.368 247.881,120.385 261.053,126.238C267.383,129.051 272.332,134.272 274.811,140.754L279.118,139.088Z" style="fill:#fff;"/>
        <path d="M279.118,139.088C276.201,131.462 270.379,125.32 262.932,122.011C247.435,115.125 229.242,122.163 222.331,137.718C222.258,137.882 222.186,138.046 222.116,138.212L226.36,140.009C226.42,139.869 226.48,139.729 226.542,139.589C232.417,126.368 247.881,120.385 261.053,126.238C267.383,129.051 272.332,134.272 274.811,140.754L279.118,139.088Z" style="fill:#fff;"/>
        <path d="M288.066,135.626C284.24,125.624 276.603,117.567 266.835,113.226C246.509,104.194 222.645,113.426 213.579,133.829C213.483,134.044 213.39,134.26 213.298,134.477L218.865,136.834C218.943,136.65 219.022,136.467 219.103,136.284C226.81,118.941 247.094,111.094 264.371,118.771C272.674,122.461 279.165,129.309 282.417,137.811L288.066,135.626Z" style="fill:#fff;"/>
        <path d="M288.066,135.626C284.24,125.624 276.603,117.567 266.835,113.226C246.509,104.194 222.645,113.426 213.579,133.829C213.483,134.044 213.39,134.26 213.298,134.477L218.865,136.834C218.943,136.65 219.022,136.467 219.103,136.284C226.81,118.941 247.094,111.094 264.371,118.771C272.674,122.461 279.165,129.309 282.417,137.811L288.066,135.626Z" style="fill:#fff;"/>
        <path d="M299.804,131.085C294.785,117.966 284.767,107.397 271.955,101.704C245.293,89.856 213.992,101.966 202.1,128.728C201.974,129.01 201.852,129.294 201.731,129.578L209.033,132.67C209.135,132.429 209.24,132.188 209.346,131.948C219.454,109.2 246.06,98.907 268.723,108.977C279.614,113.816 288.128,122.8 292.394,133.951L299.804,131.085Z" style="fill:#fff;"/>
        <path d="M299.804,131.085C294.785,117.966 284.767,107.397 271.955,101.704C245.293,89.856 213.992,101.966 202.1,128.728C201.974,129.01 201.852,129.294 201.731,129.578L209.033,132.67C209.135,132.429 209.24,132.188 209.346,131.948C219.454,109.2 246.06,98.907 268.723,108.977C279.614,113.816 288.128,122.8 292.394,133.951L299.804,131.085Z" style="fill:#fff;"/>
        <path d="M315.2,125.129C308.616,107.92 295.477,94.057 278.671,86.59C243.699,71.05 202.641,86.933 187.043,122.038C186.878,122.408 186.717,122.779 186.559,123.152L198.052,128.02C198.181,127.714 198.314,127.409 198.448,127.106C211.239,98.32 244.906,85.296 273.584,98.039C287.365,104.162 298.139,115.53 303.537,129.641L315.2,125.129Z" style="fill:#fff;"/>
        <path d="M315.2,125.129C308.616,107.92 295.477,94.057 278.671,86.59C243.699,71.05 202.641,86.933 187.043,122.038C186.878,122.408 186.717,122.779 186.559,123.152L198.052,128.02C198.181,127.714 198.314,127.409 198.448,127.106C211.239,98.32 244.906,85.296 273.584,98.039C287.365,104.162 298.139,115.53 303.537,129.641L315.2,125.129Z" style="fill:#fff;"/>
        <path d="M225.847,301.111C221.397,309.021 219.173,316.354 219.173,323.111C219.173,327.923 220.268,331.367 222.46,333.444C224.652,335.52 228.302,336.558 233.411,336.558L260.899,336.558C265.448,336.558 267.722,338.108 267.722,341.206C267.722,343.447 266.923,345.202 265.324,346.471C263.725,347.74 261.476,348.374 258.576,348.374L229.901,348.374C225.122,348.374 221.298,347.715 218.431,346.397C214.443,344.551 211.312,341.708 209.038,337.869C206.763,334.029 205.626,329.653 205.626,324.742C205.626,318.151 207.637,310.273 211.658,301.111L207.604,301.111C203.912,301.111 202.067,299.528 202.067,296.364C202.067,294.387 202.825,292.714 204.341,291.346C205.857,289.978 207.703,289.295 209.878,289.295L218.382,289.295C221.348,284.351 225.336,279.588 230.346,275.007C236.74,269.239 243.645,266.355 251.061,266.355C255.939,266.355 259.976,267.854 263.173,270.854C266.37,273.853 267.969,277.676 267.969,282.324C267.969,288.948 264.887,294.024 258.724,297.551C254.538,299.924 247.88,301.111 238.75,301.111L225.847,301.111ZM233.213,289.295L242.804,289.295C251.011,289.295 255.115,287.103 255.115,282.719C255.115,281.335 254.579,280.206 253.508,279.333C252.437,278.459 251.077,278.022 249.429,278.022C246.891,278.022 244.156,279.044 241.222,281.088C238.289,283.131 235.619,285.867 233.213,289.295Z" style="fill:#fff;fill-rule:nonzero;"/>
        <path d="M281.96,296.364C286.739,296.364 290.67,297.881 293.752,300.913C296.833,303.945 298.374,307.801 298.374,312.482C298.374,316.008 297.567,319.51 295.952,322.987C294.337,326.465 292.244,329.241 289.673,331.318C287.959,332.669 286.187,333.6 284.358,334.111C282.529,334.622 279.966,334.878 276.67,334.878C271.298,334.878 267.672,334.235 265.794,332.949C261.377,329.917 259.169,325.435 259.169,319.502C259.169,313.24 261.427,307.818 265.942,303.236C270.457,298.655 275.797,296.364 281.96,296.364ZM280.774,306.895C278.335,306.895 276.11,308.098 274.099,310.504C272.089,312.91 271.084,315.563 271.084,318.464C271.084,322.287 273.226,324.199 277.511,324.199C280.016,324.199 281.944,323.424 283.295,321.875C285.536,319.337 286.657,316.437 286.657,313.174C286.657,311.295 286.113,309.779 285.026,308.625C283.938,307.472 282.521,306.895 280.774,306.895Z" style="fill:#fff;fill-rule:nonzero;"/>
        <path d="M360.47,324.1L366.353,324.1C370.506,324.1 372.582,325.566 372.582,328.5C372.582,330.51 371.849,332.076 370.382,333.197C368.916,334.317 366.88,334.878 364.277,334.878L354.24,334.878C352.065,334.878 350.302,334.301 348.95,333.147C347.599,331.994 346.923,330.477 346.923,328.599C346.923,327.313 347.368,325.566 348.258,323.358L352.906,312.037C353.169,311.377 353.301,310.768 353.301,310.207C353.301,308.065 352.213,306.994 350.038,306.994C348.357,306.994 346.693,307.752 345.045,309.268C343.397,310.784 342.078,312.795 341.09,315.3L335.552,328.945C333.74,333.361 331.103,335.57 327.642,335.57C326.291,335.57 325.137,335.125 324.181,334.235C323.226,333.345 322.748,332.29 322.748,331.071C322.748,330.115 322.995,328.994 323.489,327.709L324.033,326.374L329.62,312.58C330.114,311.361 330.361,310.405 330.361,309.713C330.361,308.988 330.032,308.353 329.372,307.81C328.713,307.266 327.939,306.994 327.049,306.994C323.489,306.994 320.671,309.565 318.595,314.706L312.81,328.895C310.998,333.345 308.377,335.57 304.95,335.57C303.598,335.57 302.436,335.133 301.464,334.26C300.492,333.386 300.006,332.323 300.006,331.071C300.006,330.082 300.253,328.961 300.747,327.709L301.291,326.374L311.129,302.149C312.514,298.754 314.59,297.057 317.359,297.057C320.226,297.057 322.006,298.408 322.698,301.111C324.939,299.199 326.76,297.93 328.161,297.304C329.562,296.677 331.284,296.364 333.328,296.364C337.744,296.364 341.057,298.293 343.265,302.149C346.956,298.293 351.109,296.364 355.724,296.364C358.888,296.364 361.533,297.279 363.659,299.108C365.784,300.938 366.847,303.187 366.847,305.857C366.847,307.538 366.485,309.268 365.76,311.048L360.47,324.1Z" style="fill:#fff;fill-rule:nonzero;"/>
        <path d="M433.936,324.1L439.82,324.1C443.973,324.1 446.049,325.566 446.049,328.5C446.049,330.51 445.316,332.076 443.849,333.197C442.382,334.317 440.347,334.878 437.743,334.878L427.707,334.878C425.532,334.878 423.768,334.301 422.417,333.147C421.066,331.994 420.39,330.477 420.39,328.599C420.39,327.313 420.835,325.566 421.725,323.358L426.372,312.037C426.636,311.377 426.768,310.768 426.768,310.207C426.768,308.065 425.68,306.994 423.505,306.994C421.824,306.994 420.159,307.752 418.511,309.268C416.863,310.784 415.545,312.795 414.556,315.3L409.019,328.945C407.206,333.361 404.569,335.57 401.109,335.57C399.757,335.57 398.604,335.125 397.648,334.235C396.692,333.345 396.214,332.29 396.214,331.071C396.214,330.115 396.461,328.994 396.956,327.709L397.5,326.374L403.086,312.58C403.581,311.361 403.828,310.405 403.828,309.713C403.828,308.988 403.498,308.353 402.839,307.81C402.18,307.266 401.405,306.994 400.515,306.994C396.956,306.994 394.138,309.565 392.061,314.706L386.277,328.895C384.464,333.345 381.844,335.57 378.416,335.57C377.065,335.57 375.903,335.133 374.931,334.26C373.958,333.386 373.472,332.323 373.472,331.071C373.472,330.082 373.719,328.961 374.214,327.709L374.758,326.374L384.596,302.149C385.98,298.754 388.057,297.057 390.825,297.057C393.693,297.057 395.473,298.408 396.165,301.111C398.406,299.199 400.227,297.93 401.628,297.304C403.029,296.677 404.751,296.364 406.794,296.364C411.211,296.364 414.523,298.293 416.732,302.149C420.423,298.293 424.576,296.364 429.19,296.364C432.354,296.364 434.999,297.279 437.125,299.108C439.251,300.938 440.314,303.187 440.314,305.857C440.314,307.538 439.951,309.268 439.226,311.048L433.936,324.1Z" style="fill:#fff;fill-rule:nonzero;"/>
        <path d="M225.847,301.111C221.397,309.021 219.173,316.354 219.173,323.111C219.173,327.923 220.268,331.367 222.46,333.444C224.652,335.52 228.302,336.558 233.411,336.558L260.899,336.558C265.448,336.558 267.722,338.108 267.722,341.206C267.722,343.447 266.923,345.202 265.324,346.471C263.725,347.74 261.476,348.374 258.576,348.374L229.901,348.374C225.122,348.374 221.298,347.715 218.431,346.397C214.443,344.551 211.312,341.708 209.038,337.869C206.763,334.029 205.626,329.653 205.626,324.742C205.626,318.151 207.637,310.273 211.658,301.111L207.604,301.111C203.912,301.111 202.067,299.528 202.067,296.364C202.067,294.387 202.825,292.714 204.341,291.346C205.857,289.978 207.703,289.295 209.878,289.295L218.382,289.295C221.348,284.351 225.336,279.588 230.346,275.007C236.74,269.239 243.645,266.355 251.061,266.355C255.939,266.355 259.976,267.854 263.173,270.854C266.37,273.853 267.969,277.676 267.969,282.324C267.969,288.948 264.887,294.024 258.724,297.551C254.538,299.924 247.88,301.111 238.75,301.111L225.847,301.111ZM233.213,289.295L242.804,289.295C251.011,289.295 255.115,287.103 255.115,282.719C255.115,281.335 254.579,280.206 253.508,279.333C252.437,278.459 251.077,278.022 249.429,278.022C246.891,278.022 244.156,279.044 241.222,281.088C238.289,283.131 235.619,285.867 233.213,289.295Z" style="fill:#fff;fill-rule:nonzero;"/>
        <path d="M281.96,296.364C286.739,296.364 290.67,297.881 293.752,300.913C296.833,303.945 298.374,307.801 298.374,312.482C298.374,316.008 297.567,319.51 295.952,322.987C294.337,326.465 292.244,329.241 289.673,331.318C287.959,332.669 286.187,333.6 284.358,334.111C282.529,334.622 279.966,334.878 276.67,334.878C271.298,334.878 267.672,334.235 265.794,332.949C261.377,329.917 259.169,325.435 259.169,319.502C259.169,313.24 261.427,307.818 265.942,303.236C270.457,298.655 275.797,296.364 281.96,296.364ZM280.774,306.895C278.335,306.895 276.11,308.098 274.099,310.504C272.089,312.91 271.084,315.563 271.084,318.464C271.084,322.287 273.226,324.199 277.511,324.199C280.016,324.199 281.944,323.424 283.295,321.875C285.536,319.337 286.657,316.437 286.657,313.174C286.657,311.295 286.113,309.779 285.026,308.625C283.938,307.472 282.521,306.895 280.774,306.895Z" style="fill:#fff;fill-rule:nonzero;"/>
        <path d="M360.47,324.1L366.353,324.1C370.506,324.1 372.582,325.566 372.582,328.5C372.582,330.51 371.849,332.076 370.382,333.197C368.916,334.317 366.88,334.878 364.277,334.878L354.24,334.878C352.065,334.878 350.302,334.301 348.95,333.147C347.599,331.994 346.923,330.477 346.923,328.599C346.923,327.313 347.368,325.566 348.258,323.358L352.906,312.037C353.169,311.377 353.301,310.768 353.301,310.207C353.301,308.065 352.213,306.994 350.038,306.994C348.357,306.994 346.693,307.752 345.045,309.268C343.397,310.784 342.078,312.795 341.09,315.3L335.552,328.945C333.74,333.361 331.103,335.57 327.642,335.57C326.291,335.57 325.137,335.125 324.181,334.235C323.226,333.345 322.748,332.29 322.748,331.071C322.748,330.115 322.995,328.994 323.489,327.709L324.033,326.374L329.62,312.58C330.114,311.361 330.361,310.405 330.361,309.713C330.361,308.988 330.032,308.353 329.372,307.81C328.713,307.266 327.939,306.994 327.049,306.994C323.489,306.994 320.671,309.565 318.595,314.706L312.81,328.895C310.998,333.345 308.377,335.57 304.95,335.57C303.598,335.57 302.436,335.133 301.464,334.26C300.492,333.386 300.006,332.323 300.006,331.071C300.006,330.082 300.253,328.961 300.747,327.709L301.291,326.374L311.129,302.149C312.514,298.754 314.59,297.057 317.359,297.057C320.226,297.057 322.006,298.408 322.698,301.111C324.939,299.199 326.76,297.93 328.161,297.304C329.562,296.677 331.284,296.364 333.328,296.364C337.744,296.364 341.057,298.293 343.265,302.149C346.956,298.293 351.109,296.364 355.724,296.364C358.888,296.364 361.533,297.279 363.659,299.108C365.784,300.938 366.847,303.187 366.847,305.857C366.847,307.538 366.485,309.268 365.76,311.048L360.47,324.1Z" style="fill:#fff;fill-rule:nonzero;"/>
        <path d="M433.936,324.1L439.82,324.1C443.973,324.1 446.049,325.566 446.049,328.5C446.049,330.51 445.316,332.076 443.849,333.197C442.382,334.317 440.347,334.878 437.743,334.878L427.707,334.878C425.532,334.878 423.768,334.301 422.417,333.147C421.066,331.994 420.39,330.477 420.39,328.599C420.39,327.313 420.835,325.566 421.725,323.358L426.372,312.037C426.636,311.377 426.768,310.768 426.768,310.207C426.768,308.065 425.68,306.994 423.505,306.994C421.824,306.994 420.159,307.752 418.511,309.268C416.863,310.784 415.545,312.795 414.556,315.3L409.019,328.945C407.206,333.361 404.569,335.57 401.109,335.57C399.757,335.57 398.604,335.125 397.648,334.235C396.692,333.345 396.214,332.29 396.214,331.071C396.214,330.115 396.461,328.994 396.956,327.709L397.5,326.374L403.086,312.58C403.581,311.361 403.828,310.405 403.828,309.713C403.828,308.988 403.498,308.353 402.839,307.81C402.18,307.266 401.405,306.994 400.515,306.994C396.956,306.994 394.138,309.565 392.061,314.706L386.277,328.895C384.464,333.345 381.844,335.57 378.416,335.57C377.065,335.57 375.903,335.133 374.931,334.26C373.958,333.386 373.472,332.323 373.472,331.071C373.472,330.082 373.719,328.961 374.214,327.709L374.758,326.374L384.596,302.149C385.98,298.754 388.057,297.057 390.825,297.057C393.693,297.057 395.473,298.408 396.165,301.111C398.406,299.199 400.227,297.93 401.628,297.304C403.029,296.677 404.751,296.364 406.794,296.364C411.211,296.364 414.523,298.293 416.732,302.149C420.423,298.293 424.576,296.364 429.19,296.364C432.354,296.364 434.999,297.279 437.125,299.108C439.251,300.938 440.314,303.187 440.314,305.857C440.314,307.538 439.951,309.268 439.226,311.048L433.936,324.1Z" style="fill:#fff;fill-rule:nonzero;"/>
        <g>
            <path d="M74.475,258.341L74.475,218.988C72.471,223.536 70.836,227.227 69.57,230.062C65.141,239.752 60.816,244.597 56.598,244.597C52.432,244.597 48.134,239.785 43.704,230.161C42.016,226.469 40.355,222.745 38.72,218.988L38.72,258.341L25.985,258.341L25.985,207.023C25.985,203.595 26.96,200.662 28.912,198.223C30.863,195.784 33.21,194.565 35.952,194.565C40.645,194.565 45.602,200.102 50.823,211.176C52.722,215.461 54.646,219.746 56.598,224.03C58.232,220.339 59.894,216.647 61.581,212.956C64.112,207.419 66.406,203.266 68.463,200.497C71.416,196.542 74.343,194.565 77.243,194.565C79.986,194.565 82.332,195.784 84.284,198.223C86.235,200.662 87.21,203.595 87.21,207.023L87.21,258.341L74.475,258.341Z" style="fill:#fff;fill-rule:nonzero;"/>
            <path d="M116.953,234.413L107.619,234.413L107.619,218.493L125.496,218.493L116.953,234.413ZM124.547,258.341L92.273,258.341L92.273,194.565L124.547,194.565L133.09,210.484L105.088,210.484L105.088,242.422L133.09,242.422L124.547,258.341Z" style="fill:#fff;fill-rule:nonzero;"/>
            <path d="M174.144,258.341L138.152,258.341L138.152,213.648L150.888,213.648L150.888,242.422L170.031,242.422L153.419,210.484L138.152,210.484L138.152,194.565L155.239,194.565C158.825,194.565 161.62,196.542 163.624,200.497C165.997,204.782 168.396,209.034 170.822,213.253C174.566,219.91 177.651,225.843 180.077,231.051C183.188,237.709 184.744,242.389 184.744,245.091C184.744,248.651 183.689,251.749 181.58,254.386C179.47,257.023 176.992,258.341 174.144,258.341Z" style="fill:#fff;fill-rule:nonzero;"/>
        </g>
        <path d="M74.475,258.341L74.475,218.988C72.471,223.536 70.836,227.227 69.57,230.062C65.141,239.752 60.816,244.597 56.598,244.597C52.432,244.597 48.134,239.785 43.704,230.161C42.016,226.469 40.355,222.745 38.72,218.988L38.72,258.341L25.985,258.341L25.985,207.023C25.985,203.595 26.96,200.662 28.912,198.223C30.863,195.784 33.21,194.565 35.952,194.565C40.645,194.565 45.602,200.102 50.823,211.176C52.722,215.461 54.646,219.746 56.598,224.03C58.232,220.339 59.894,216.647 61.581,212.956C64.112,207.419 66.406,203.266 68.463,200.497C71.416,196.542 74.343,194.565 77.243,194.565C79.986,194.565 82.332,195.784 84.284,198.223C86.235,200.662 87.21,203.595 87.21,207.023L87.21,258.341L74.475,258.341Z" style="fill:#fff;fill-rule:nonzero;"/>
        <path d="M116.953,234.413L107.619,234.413L107.619,218.493L125.496,218.493L116.953,234.413ZM124.547,258.341L92.273,258.341L92.273,194.565L124.547,194.565L133.09,210.484L105.088,210.484L105.088,242.422L133.09,242.422L124.547,258.341Z" style="fill:#fff;fill-rule:nonzero;"/>
        <path d="M174.144,258.341L138.152,258.341L138.152,213.648L150.888,213.648L150.888,242.422L170.031,242.422L153.419,210.484L138.152,210.484L138.152,194.565L155.239,194.565C158.825,194.565 161.62,196.542 163.624,200.497C165.997,204.782 168.396,209.034 170.822,213.253C174.566,219.91 177.651,225.843 180.077,231.051C183.188,237.709 184.744,242.389 184.744,245.091C184.744,248.651 183.689,251.749 181.58,254.386C179.47,257.023 176.992,258.341 174.144,258.341Z" style="fill:#fff;fill-rule:nonzero;"/>
    </g>
    <defs>
        <radialGradient id="_Radial1" cx="0" cy="0" r="1" gradientUnits="userSpaceOnUse" gradientTransform="matrix(153,283,-283,153,200.387,83.4529)"><stop offset="0" style="stop-color:#fff;stop-opacity:1"/><stop offset="1" style="stop-color:#83b485;stop-opacity:1"/></radialGradient>
        <linearGradient id="_Linear2" x1="0" y1="0" x2="1" y2="0" gradientUnits="userSpaceOnUse" gradientTransform="matrix(-198.813,183.184,-183.184,-198.813,394.387,-4.54712)"><stop offset="0" style="stop-color:#fff;stop-opacity:1"/><stop offset="0.45" style="stop-color:#fff;stop-opacity:0.215686"/><stop offset="1" style="stop-color:#fff;stop-opacity:0"/></linearGradient>
        <linearGradient id="_Linear3" x1="0" y1="0" x2="1" y2="0" gradientUnits="userSpaceOnUse" gradientTransform="matrix(-22.0895,-114.453,-221.047,42.6622,232.387,457.799)"><stop offset="0" style="stop-color:#226237;stop-opacity:1"/><stop offset="0.45" style="stop-color:#226237;stop-opacity:0.211765"/><stop offset="1" style="stop-color:#226237;stop-opacity:0"/></linearGradient>
    </defs>
</svg>
